<mxfile host="app.diagrams.net" modified="2021-01-29T23:09:31.794Z" agent="5.0 (Windows)" etag="MQC7GI3XwLbXHoW5_427" version="14.2.9" type="github">
  <diagram id="ZzeNlcGiF9x-yTzajEMn" name="Page-1">
    <mxGraphModel dx="2104" dy="791" grid="1" gridSize="10" guides="1" tooltips="1" connect="1" arrows="1" fold="1" page="1" pageScale="1" pageWidth="850" pageHeight="1100" math="0" shadow="0">
      <root>
        <mxCell id="0" />
        <mxCell id="1" parent="0" />
        <mxCell id="KRq555Xv5bsVZkIRecgD-1" value="&lt;div&gt;&lt;font style=&quot;font-size: 18px&quot;&gt;CTC Office&lt;/font&gt;&lt;/div&gt;&lt;div&gt;Schedule/Route Trains&lt;/div&gt;&lt;div&gt;Monitor Trains&lt;/div&gt;&lt;div&gt;Set Authority&lt;br&gt;&lt;/div&gt;&lt;div&gt;&lt;br&gt;&lt;/div&gt;" style="rounded=1;whiteSpace=wrap;html=1;" vertex="1" parent="1">
          <mxGeometry x="145.63218390804593" y="398.62745098039215" width="245.51724137931032" height="132.94117647058823" as="geometry" />
        </mxCell>
        <mxCell id="KRq555Xv5bsVZkIRecgD-2" value="&lt;div&gt;&lt;font style=&quot;font-size: 18px&quot;&gt;HW Track Controller&lt;/font&gt;&lt;/div&gt;" style="rounded=1;whiteSpace=wrap;html=1;" vertex="1" parent="1">
          <mxGeometry x="-304.48275862068965" y="620.1960784313726" width="245.51724137931032" height="132.94117647058823" as="geometry" />
        </mxCell>
        <mxCell id="KRq555Xv5bsVZkIRecgD-10" style="edgeStyle=orthogonalEdgeStyle;rounded=0;orthogonalLoop=1;jettySize=auto;html=1;entryX=0.5;entryY=0;entryDx=0;entryDy=0;startArrow=none;startFill=0;" edge="1" parent="1" target="KRq555Xv5bsVZkIRecgD-2">
          <mxGeometry x="-550" y="310" as="geometry">
            <mxPoint x="-181.72413793103453" y="487.2549019607843" as="targetPoint" />
            <mxPoint x="146" y="487" as="sourcePoint" />
            <Array as="points">
              <mxPoint x="146" y="487" />
              <mxPoint x="-182" y="487" />
            </Array>
          </mxGeometry>
        </mxCell>
        <mxCell id="KRq555Xv5bsVZkIRecgD-3" value="SW Track Controller" style="rounded=1;whiteSpace=wrap;html=1;" vertex="1" parent="1">
          <mxGeometry x="-18.0459770114943" y="620.1960784313726" width="245.51724137931032" height="132.94117647058823" as="geometry" />
        </mxCell>
        <mxCell id="KRq555Xv5bsVZkIRecgD-81" style="edgeStyle=orthogonalEdgeStyle;rounded=0;orthogonalLoop=1;jettySize=auto;html=1;exitX=0.75;exitY=0;exitDx=0;exitDy=0;entryX=0.75;entryY=1;entryDx=0;entryDy=0;startArrow=none;startFill=0;endArrow=classic;endFill=1;" edge="1" parent="1" source="KRq555Xv5bsVZkIRecgD-4" target="KRq555Xv5bsVZkIRecgD-2">
          <mxGeometry relative="1" as="geometry" />
        </mxCell>
        <mxCell id="KRq555Xv5bsVZkIRecgD-4" value="&lt;div&gt;&lt;font style=&quot;font-size: 18px&quot;&gt;Track Model&lt;/font&gt;&lt;/div&gt;&lt;div&gt;Track Layout&lt;/div&gt;&lt;div&gt;Grade and Elevation&lt;/div&gt;&lt;div&gt;Crossroads&lt;/div&gt;&lt;div&gt;Track Heaters&lt;/div&gt;&lt;div&gt;Stations&lt;br&gt;&lt;/div&gt;" style="rounded=1;whiteSpace=wrap;html=1;" vertex="1" parent="1">
          <mxGeometry x="-161.26436781609198" y="863.9215686274509" width="245.51724137931032" height="132.94117647058823" as="geometry" />
        </mxCell>
        <mxCell id="KRq555Xv5bsVZkIRecgD-15" style="edgeStyle=orthogonalEdgeStyle;rounded=0;orthogonalLoop=1;jettySize=auto;html=1;exitX=0.5;exitY=1;exitDx=0;exitDy=0;entryX=0.45;entryY=-0.033;entryDx=0;entryDy=0;entryPerimeter=0;" edge="1" parent="1" source="KRq555Xv5bsVZkIRecgD-2" target="KRq555Xv5bsVZkIRecgD-4">
          <mxGeometry x="-550" y="310" as="geometry">
            <Array as="points">
              <mxPoint x="-182" y="820" />
              <mxPoint x="-51" y="820" />
            </Array>
          </mxGeometry>
        </mxCell>
        <mxCell id="KRq555Xv5bsVZkIRecgD-76" style="edgeStyle=orthogonalEdgeStyle;rounded=0;orthogonalLoop=1;jettySize=auto;html=1;exitX=0;exitY=0.75;exitDx=0;exitDy=0;entryX=1;entryY=0.75;entryDx=0;entryDy=0;startArrow=none;startFill=0;endArrow=classic;endFill=1;" edge="1" parent="1" source="KRq555Xv5bsVZkIRecgD-5" target="KRq555Xv5bsVZkIRecgD-4">
          <mxGeometry relative="1" as="geometry" />
        </mxCell>
        <mxCell id="KRq555Xv5bsVZkIRecgD-5" value="&lt;div&gt;&lt;font style=&quot;font-size: 18px&quot;&gt;Train Model&lt;/font&gt;&lt;/div&gt;&lt;div&gt;Newtonian Movement&lt;/div&gt;&lt;div&gt;Physical Dimensions&lt;/div&gt;&lt;div&gt;Occupancy&lt;/div&gt;&lt;div&gt;Car Count&lt;br&gt;&lt;/div&gt;" style="rounded=1;whiteSpace=wrap;html=1;" vertex="1" parent="1">
          <mxGeometry x="472.9885057471263" y="863.9215686274509" width="245.51724137931032" height="132.94117647058823" as="geometry" />
        </mxCell>
        <mxCell id="KRq555Xv5bsVZkIRecgD-18" style="edgeStyle=orthogonalEdgeStyle;rounded=0;orthogonalLoop=1;jettySize=auto;html=1;exitX=1;exitY=0.5;exitDx=0;exitDy=0;" edge="1" parent="1" source="KRq555Xv5bsVZkIRecgD-4" target="KRq555Xv5bsVZkIRecgD-5">
          <mxGeometry x="-550" y="310" as="geometry" />
        </mxCell>
        <mxCell id="KRq555Xv5bsVZkIRecgD-75" style="edgeStyle=orthogonalEdgeStyle;rounded=0;orthogonalLoop=1;jettySize=auto;html=1;startArrow=none;startFill=0;endArrow=none;endFill=0;" edge="1" parent="1" source="KRq555Xv5bsVZkIRecgD-6" target="KRq555Xv5bsVZkIRecgD-7">
          <mxGeometry relative="1" as="geometry" />
        </mxCell>
        <mxCell id="KRq555Xv5bsVZkIRecgD-6" value="HW Train Controller" style="rounded=1;whiteSpace=wrap;html=1;" vertex="1" parent="1">
          <mxGeometry x="554.8275862068965" y="620.1960784313726" width="245.51724137931032" height="132.94117647058823" as="geometry" />
        </mxCell>
        <mxCell id="KRq555Xv5bsVZkIRecgD-78" style="edgeStyle=orthogonalEdgeStyle;rounded=0;orthogonalLoop=1;jettySize=auto;html=1;exitX=0.75;exitY=1;exitDx=0;exitDy=0;entryX=1;entryY=0.75;entryDx=0;entryDy=0;startArrow=none;startFill=0;endArrow=classic;endFill=1;" edge="1" parent="1" source="KRq555Xv5bsVZkIRecgD-7" target="KRq555Xv5bsVZkIRecgD-5">
          <mxGeometry relative="1" as="geometry" />
        </mxCell>
        <mxCell id="KRq555Xv5bsVZkIRecgD-7" value="SW Train Controller" style="rounded=1;whiteSpace=wrap;html=1;" vertex="1" parent="1">
          <mxGeometry x="841.2643678160919" y="620.1960784313726" width="245.51724137931032" height="132.94117647058823" as="geometry" />
        </mxCell>
        <mxCell id="KRq555Xv5bsVZkIRecgD-20" style="edgeStyle=orthogonalEdgeStyle;rounded=0;orthogonalLoop=1;jettySize=auto;html=1;exitX=1;exitY=0.5;exitDx=0;exitDy=0;entryX=0.5;entryY=1;entryDx=0;entryDy=0;" edge="1" parent="1" source="KRq555Xv5bsVZkIRecgD-5" target="KRq555Xv5bsVZkIRecgD-7">
          <mxGeometry x="-550" y="310" as="geometry" />
        </mxCell>
        <mxCell id="KRq555Xv5bsVZkIRecgD-35" style="edgeStyle=orthogonalEdgeStyle;rounded=0;orthogonalLoop=1;jettySize=auto;html=1;entryX=1;entryY=0.5;entryDx=0;entryDy=0;" edge="1" parent="1" source="KRq555Xv5bsVZkIRecgD-34" target="KRq555Xv5bsVZkIRecgD-3">
          <mxGeometry x="-550" y="310" as="geometry" />
        </mxCell>
        <mxCell id="KRq555Xv5bsVZkIRecgD-34" value="Programmer" style="shape=umlActor;verticalLabelPosition=bottom;verticalAlign=top;html=1;outlineConnect=0;" vertex="1" parent="1">
          <mxGeometry x="370.6896551724136" y="575.8823529411765" width="51.149425287356316" height="88.62745098039217" as="geometry" />
        </mxCell>
        <mxCell id="KRq555Xv5bsVZkIRecgD-39" style="edgeStyle=orthogonalEdgeStyle;rounded=0;orthogonalLoop=1;jettySize=auto;html=1;entryX=0.5;entryY=1;entryDx=0;entryDy=0;" edge="1" parent="1" source="KRq555Xv5bsVZkIRecgD-38" target="KRq555Xv5bsVZkIRecgD-4">
          <mxGeometry x="-550" y="310" as="geometry" />
        </mxCell>
        <mxCell id="KRq555Xv5bsVZkIRecgD-38" value="Murphy" style="shape=umlActor;verticalLabelPosition=bottom;verticalAlign=top;html=1;outlineConnect=0;" vertex="1" parent="1">
          <mxGeometry x="125.17241379310337" y="1041.1764705882354" width="122.75862068965516" height="88.62745098039217" as="geometry" />
        </mxCell>
        <mxCell id="KRq555Xv5bsVZkIRecgD-44" value="Murphy" style="shape=umlActor;verticalLabelPosition=bottom;verticalAlign=top;html=1;outlineConnect=0;" vertex="1" parent="1">
          <mxGeometry x="125.17241379310337" y="1041.1764705882354" width="122.75862068965516" height="88.62745098039217" as="geometry" />
        </mxCell>
        <mxCell id="KRq555Xv5bsVZkIRecgD-46" style="edgeStyle=orthogonalEdgeStyle;rounded=0;orthogonalLoop=1;jettySize=auto;html=1;entryX=0.5;entryY=1;entryDx=0;entryDy=0;" edge="1" parent="1" source="KRq555Xv5bsVZkIRecgD-45" target="KRq555Xv5bsVZkIRecgD-5">
          <mxGeometry x="-550" y="310" as="geometry" />
        </mxCell>
        <mxCell id="KRq555Xv5bsVZkIRecgD-45" value="Murphy" style="shape=umlActor;verticalLabelPosition=bottom;verticalAlign=top;html=1;outlineConnect=0;" vertex="1" parent="1">
          <mxGeometry x="841.2643678160919" y="1041.1764705882354" width="122.75862068965516" height="88.62745098039217" as="geometry" />
        </mxCell>
        <mxCell id="KRq555Xv5bsVZkIRecgD-48" style="edgeStyle=orthogonalEdgeStyle;rounded=0;orthogonalLoop=1;jettySize=auto;html=1;entryX=1;entryY=0.25;entryDx=0;entryDy=0;" edge="1" parent="1" source="KRq555Xv5bsVZkIRecgD-47" target="KRq555Xv5bsVZkIRecgD-1">
          <mxGeometry x="-550" y="310" as="geometry" />
        </mxCell>
        <mxCell id="KRq555Xv5bsVZkIRecgD-47" value="Dispatcher" style="shape=umlActor;verticalLabelPosition=bottom;verticalAlign=top;html=1;outlineConnect=0;" vertex="1" parent="1">
          <mxGeometry x="636.6666666666665" y="332.15686274509807" width="61.37931034482758" height="132.94117647058823" as="geometry" />
        </mxCell>
        <mxCell id="KRq555Xv5bsVZkIRecgD-50" style="edgeStyle=orthogonalEdgeStyle;rounded=0;orthogonalLoop=1;jettySize=auto;html=1;entryX=0.75;entryY=0;entryDx=0;entryDy=0;" edge="1" parent="1" source="KRq555Xv5bsVZkIRecgD-49" target="KRq555Xv5bsVZkIRecgD-6">
          <mxGeometry x="-550" y="310" as="geometry">
            <mxPoint x="740" y="610" as="targetPoint" />
          </mxGeometry>
        </mxCell>
        <mxCell id="KRq555Xv5bsVZkIRecgD-49" value="Driver" style="shape=umlActor;verticalLabelPosition=bottom;verticalAlign=top;html=1;outlineConnect=0;" vertex="1" parent="1">
          <mxGeometry x="1168.6206896551723" y="398.62745098039215" width="61.37931034482758" height="132.94117647058823" as="geometry" />
        </mxCell>
        <mxCell id="KRq555Xv5bsVZkIRecgD-51" value="&lt;font style=&quot;font-size: 14px&quot;&gt;&lt;b&gt;Input&lt;/b&gt;&lt;/font&gt;" style="text;html=1;strokeColor=none;fillColor=none;align=center;verticalAlign=middle;whiteSpace=wrap;rounded=0;" vertex="1" parent="1">
          <mxGeometry x="227.47126436781605" y="332.15686274509807" width="81.83908045977012" height="44.313725490196084" as="geometry" />
        </mxCell>
        <mxCell id="KRq555Xv5bsVZkIRecgD-52" value="&lt;font size=&quot;1&quot;&gt;&lt;b style=&quot;font-size: 14px&quot;&gt;OutPut&lt;/b&gt;&lt;/font&gt;" style="text;html=1;align=center;verticalAlign=middle;resizable=0;points=[];autosize=1;" vertex="1" parent="1">
          <mxGeometry x="759.4252873563219" y="553.7254901960785" width="60" height="20" as="geometry" />
        </mxCell>
        <mxCell id="KRq555Xv5bsVZkIRecgD-53" value="&lt;div&gt;Suggested Speed&lt;/div&gt;&lt;div&gt;Authority&lt;/div&gt;&lt;div&gt;Maintenance Modes&lt;br&gt;&lt;/div&gt;" style="text;html=1;align=center;verticalAlign=middle;resizable=0;points=[];autosize=1;" vertex="1" parent="1">
          <mxGeometry x="-120.00367816091955" y="496.57431372549024" width="130" height="50" as="geometry" />
        </mxCell>
        <mxCell id="KRq555Xv5bsVZkIRecgD-55" value="&lt;div&gt;Commanded Speed&lt;/div&gt;&lt;div&gt;Authority&lt;/div&gt;&lt;div&gt;Beacon&lt;/div&gt;&lt;div&gt;Setpoint speed/Brake Command&lt;/div&gt;&lt;div&gt;Light Control&lt;/div&gt;&lt;div&gt;Door open/close&lt;br&gt;&lt;/div&gt;" style="text;html=1;strokeColor=none;fillColor=none;align=center;verticalAlign=middle;whiteSpace=wrap;rounded=0;" vertex="1" parent="1">
          <mxGeometry x="166.0919540229885" y="863.9215686274509" width="225.0574712643678" height="44.313725490196084" as="geometry" />
        </mxCell>
        <mxCell id="KRq555Xv5bsVZkIRecgD-56" value="&lt;div&gt;Command Speed, Authority, &lt;br&gt;&lt;/div&gt;&lt;div&gt;Switch Positions, Lights&lt;/div&gt;" style="text;html=1;align=center;verticalAlign=middle;resizable=0;points=[];autosize=1;" vertex="1" parent="1">
          <mxGeometry x="-360" y="789.6041176470587" width="170" height="30" as="geometry" />
        </mxCell>
        <mxCell id="KRq555Xv5bsVZkIRecgD-57" value="&lt;div&gt;Current Speed&lt;/div&gt;&lt;div&gt;Door Status&lt;/div&gt;&lt;div&gt;Light Status&lt;br&gt;&lt;/div&gt;" style="text;html=1;strokeColor=none;fillColor=none;align=center;verticalAlign=middle;whiteSpace=wrap;rounded=0;" vertex="1" parent="1">
          <mxGeometry x="780" y="880" width="160" height="44.31" as="geometry" />
        </mxCell>
        <mxCell id="KRq555Xv5bsVZkIRecgD-60" value="&lt;div&gt;Train Schedule&lt;/div&gt;&lt;div&gt;Train Routes (Close/Open Track Sections)&lt;br&gt;&lt;/div&gt;" style="text;html=1;strokeColor=none;fillColor=none;align=center;verticalAlign=middle;whiteSpace=wrap;rounded=0;" vertex="1" parent="1">
          <mxGeometry x="329.7691954022988" y="310" width="368.27586206896547" height="44.313725490196084" as="geometry" />
        </mxCell>
        <mxCell id="KRq555Xv5bsVZkIRecgD-62" value="" style="endArrow=classic;html=1;exitX=1;exitY=0.75;exitDx=0;exitDy=0;rounded=0;" edge="1" parent="1" source="KRq555Xv5bsVZkIRecgD-1" target="KRq555Xv5bsVZkIRecgD-47">
          <mxGeometry width="50" height="50" relative="1" as="geometry">
            <mxPoint x="470" y="540" as="sourcePoint" />
            <mxPoint x="520" y="490" as="targetPoint" />
            <Array as="points">
              <mxPoint x="550" y="498" />
              <mxPoint x="550" y="440" />
            </Array>
          </mxGeometry>
        </mxCell>
        <mxCell id="KRq555Xv5bsVZkIRecgD-63" value="&lt;div&gt;Current State of Entire Transit System&lt;/div&gt;&lt;div&gt;Throughputt Metrics&lt;br&gt;&lt;/div&gt;" style="text;html=1;strokeColor=none;fillColor=none;align=center;verticalAlign=middle;whiteSpace=wrap;rounded=0;" vertex="1" parent="1">
          <mxGeometry x="403.90999999999997" y="511.57" width="220" height="20" as="geometry" />
        </mxCell>
        <mxCell id="KRq555Xv5bsVZkIRecgD-64" value="" style="endArrow=classic;html=1;exitX=0.226;exitY=0.014;exitDx=0;exitDy=0;exitPerimeter=0;entryX=0.006;entryY=0.206;entryDx=0;entryDy=0;entryPerimeter=0;rounded=0;" edge="1" parent="1" source="KRq555Xv5bsVZkIRecgD-2" target="KRq555Xv5bsVZkIRecgD-1">
          <mxGeometry width="50" height="50" relative="1" as="geometry">
            <mxPoint x="-300" y="540" as="sourcePoint" />
            <mxPoint x="-250" y="490" as="targetPoint" />
            <Array as="points">
              <mxPoint x="-250" y="426" />
            </Array>
          </mxGeometry>
        </mxCell>
        <mxCell id="KRq555Xv5bsVZkIRecgD-66" value="&lt;div&gt;Train Positions&lt;/div&gt;&lt;div&gt;Broken Rails&lt;/div&gt;&lt;div&gt;Current Speed&lt;br&gt;&lt;/div&gt;" style="text;html=1;strokeColor=none;fillColor=none;align=center;verticalAlign=middle;whiteSpace=wrap;rounded=0;" vertex="1" parent="1">
          <mxGeometry x="-228.97" y="388.63" width="170" height="20" as="geometry" />
        </mxCell>
        <mxCell id="KRq555Xv5bsVZkIRecgD-70" value="" style="endArrow=none;html=1;exitX=1;exitY=0.5;exitDx=0;exitDy=0;" edge="1" parent="1" source="KRq555Xv5bsVZkIRecgD-2">
          <mxGeometry width="50" height="50" relative="1" as="geometry">
            <mxPoint x="180" y="710" as="sourcePoint" />
            <mxPoint x="-20" y="687" as="targetPoint" />
          </mxGeometry>
        </mxCell>
        <mxCell id="KRq555Xv5bsVZkIRecgD-73" value="Data Transfer" style="text;html=1;strokeColor=none;fillColor=none;align=center;verticalAlign=middle;whiteSpace=wrap;rounded=0;" vertex="1" parent="1">
          <mxGeometry x="-58.97000000000001" y="690" width="40" height="20" as="geometry" />
        </mxCell>
        <mxCell id="KRq555Xv5bsVZkIRecgD-74" value="&lt;div&gt;Code&lt;/div&gt;" style="text;html=1;strokeColor=none;fillColor=none;align=center;verticalAlign=middle;whiteSpace=wrap;rounded=0;" vertex="1" parent="1">
          <mxGeometry x="248.39" y="700" width="40" as="geometry" />
        </mxCell>
        <mxCell id="KRq555Xv5bsVZkIRecgD-77" value="&lt;div&gt;Train Status&lt;/div&gt;Occupancy" style="text;html=1;strokeColor=none;fillColor=none;align=center;verticalAlign=middle;whiteSpace=wrap;rounded=0;" vertex="1" parent="1">
          <mxGeometry x="217.59" y="970" width="122.07" height="20" as="geometry" />
        </mxCell>
        <mxCell id="KRq555Xv5bsVZkIRecgD-79" value="&lt;div&gt;Speed Controls&lt;/div&gt;&lt;div&gt;Brake Commands&lt;/div&gt;&lt;div&gt;Light Commands&lt;/div&gt;&lt;div&gt;Door Controls&lt;/div&gt;&lt;div&gt;Station Announcements&lt;/div&gt;&lt;div&gt;Fault Status&lt;br&gt;&lt;/div&gt;" style="text;html=1;strokeColor=none;fillColor=none;align=center;verticalAlign=middle;whiteSpace=wrap;rounded=0;" vertex="1" parent="1">
          <mxGeometry x="1030" y="830" width="200" height="20" as="geometry" />
        </mxCell>
        <mxCell id="KRq555Xv5bsVZkIRecgD-80" value="&lt;div&gt;Speed Controls&lt;/div&gt;&lt;div&gt;Brake&lt;/div&gt;&lt;div&gt;Door Controls&lt;/div&gt;&lt;div&gt;&lt;br&gt;&lt;/div&gt;" style="text;html=1;strokeColor=none;fillColor=none;align=center;verticalAlign=middle;whiteSpace=wrap;rounded=0;" vertex="1" parent="1">
          <mxGeometry x="850" y="430" width="240" height="20" as="geometry" />
        </mxCell>
        <mxCell id="KRq555Xv5bsVZkIRecgD-82" value="&lt;div&gt;Occupancy&lt;/div&gt;&lt;div&gt;Train Position&lt;/div&gt;&lt;div&gt;Track Status&lt;/div&gt;&lt;div&gt;Track Temperature&lt;br&gt;&lt;/div&gt;" style="text;html=1;strokeColor=none;fillColor=none;align=center;verticalAlign=middle;whiteSpace=wrap;rounded=0;" vertex="1" parent="1">
          <mxGeometry x="10" y="780" width="180" height="20" as="geometry" />
        </mxCell>
        <mxCell id="KRq555Xv5bsVZkIRecgD-83" value="Data Transfer" style="text;html=1;strokeColor=none;fillColor=none;align=center;verticalAlign=middle;whiteSpace=wrap;rounded=0;" vertex="1" parent="1">
          <mxGeometry x="800.3399999999999" y="690" width="40" height="20" as="geometry" />
        </mxCell>
      </root>
    </mxGraphModel>
  </diagram>
</mxfile>
